<svg width="18" height="18" viewBox="0 0 18 18" fill="none" xmlns="http://www.w3.org/2000/svg">
<path d="M17.9016 7.36122H9.17957V11.0439H14.122C13.3329 13.499 11.3808 14.3173 9.13804 14.3173C8.26959 14.3185 7.41368 14.1132 6.64294 13.7189C5.8722 13.3246 5.20936 12.753 4.71066 12.0525C4.21197 11.3521 3.89213 10.5434 3.7783 9.69524C3.66446 8.84703 3.75997 7.98428 4.05674 7.1802C4.35351 6.37611 4.84277 5.65442 5.48302 5.07634C6.12327 4.49827 6.8956 4.08088 7.7345 3.85958C8.57339 3.63828 9.45409 3.61961 10.3019 3.80514C11.1497 3.99068 11.9395 4.37495 12.6044 4.92535L15.3207 2.37695C14.2269 1.38545 12.904 0.67186 11.4669 0.2981C10.0298 -0.0756589 8.52182 -0.0983008 7.07381 0.232139C5.6258 0.562579 4.2815 1.23612 3.15754 2.19432C2.03358 3.15253 1.16392 4.36645 0.624008 5.73077C0.0840944 7.09509 -0.109762 8.56859 0.0592589 10.0234C0.228279 11.4783 0.755071 12.8705 1.59393 14.0794C2.43279 15.2882 3.55837 16.2771 4.87302 16.9604C6.18768 17.6436 7.65169 18.0004 9.13804 18C14.1764 18 18.7322 14.7265 17.9016 7.36122Z" fill="#7E0707"/>
</svg>
