<svg width="75" height="71" viewBox="0 0 75 71" fill="none" xmlns="http://www.w3.org/2000/svg">
<path fill-rule="evenodd" clip-rule="evenodd" d="M20.0615 67.4467C18.7904 67.4467 17.9959 66.4822 17.9959 64.9043C17.9959 57.4483 32.7903 40.5126 47.5487 26.157C45.0534 42.2797 28.5659 67.4467 20.0615 67.4467ZM73.0204 0.817932C70.9896 0.866873 66.8232 1.0245 63.1684 1.07694C61.8828 1.09537 61.3692 1.67296 61.534 2.5021C61.7282 3.47916 62.372 4.20262 63.3408 4.22821C64.5883 4.26126 66.2592 4.05294 68.4014 3.94759C63.5314 7.69473 57.6389 12.6199 51.5596 18.0997C50.8456 12.5867 48.2897 8.17762 43.2607 8.17762C35.9514 8.17762 28.6421 19.3005 25.4641 25.4975C25.1463 20.4128 22.9217 15.6458 18.1548 15.6458C8.24396 15.6458 0 38.1983 0 41.5731C0 42.7269 1.31949 43.6119 2.11398 43.6119C3.06737 43.6119 3.37722 43.1353 3.69502 42.023C7.82638 28.5166 14.0234 19.1416 18.1548 19.1416C20.2204 19.1416 21.8094 21.5251 21.8094 27.0865C21.8094 31.1785 21.1123 33.663 21.1123 34.6326C21.1123 36.1477 22.445 36.9382 23.2395 36.9382C24.1929 36.9382 24.5107 36.4615 24.9874 35.3492C29.7543 23.5908 37.5404 11.8323 43.1018 11.8323C45.8404 11.8323 47.7035 15.3304 47.8572 21.4858C31.1832 36.9552 14.3838 55.5964 14.3838 64.7667C14.3838 68.5833 16.4882 70.7836 19.9026 70.7836C32.1613 70.7836 51.347 40.3166 51.7646 22.1238C58.5866 15.7048 65.0916 10.0995 69.7729 6.53287C69.0521 8.32127 68.3256 10.0607 67.956 11.3591C67.6854 12.309 67.8502 13.3534 69.0176 13.8074C69.7559 14.0945 70.4139 13.6784 70.7032 12.8532C72.4624 7.83377 73.3688 5.77492 74.4448 2.90315C75.1486 1.02482 75.0734 0.768515 73.0204 0.817932Z" fill="#0B3B3C"/>
</svg>
